<svg width="25" height="25" viewBox="0 0 25 25" fill="none" xmlns="http://www.w3.org/2000/svg">
<path id="Vector" d="M14.1927 12.3264L17.526 15.6597C17.7705 15.9042 17.8927 16.2153 17.8927 16.5931C17.8927 16.9709 17.7705 17.282 17.526 17.5264C17.2816 17.7709 16.9705 17.8931 16.5927 17.8931C16.2149 17.8931 15.9038 17.7709 15.6594 17.5264L11.926 13.7931C11.7927 13.6597 11.6927 13.5095 11.626 13.3424C11.5594 13.1762 11.526 13.0042 11.526 12.8264V7.52641C11.526 7.14863 11.654 6.83174 11.91 6.57574C12.1652 6.32063 12.4816 6.19307 12.8594 6.19307C13.2372 6.19307 13.554 6.32063 13.81 6.57574C14.0652 6.83174 14.1927 7.14863 14.1927 7.52641V12.3264ZM12.8594 24.8597C11.1927 24.8597 9.63182 24.5433 8.17671 23.9104C6.72071 23.2766 5.45404 22.4206 4.37671 21.3424C3.29849 20.2651 2.44249 18.9984 1.80871 17.5424C1.17582 16.0873 0.859375 14.5264 0.859375 12.8597C0.859375 11.1931 1.17582 9.63174 1.80871 8.17574C2.44249 6.72063 3.29849 5.45396 4.37671 4.37574C5.45404 3.29841 6.72071 2.44285 8.17671 1.80907C9.63182 1.17619 11.1927 0.859741 12.8594 0.859741C14.6816 0.859741 16.4096 1.24863 18.0434 2.02641C19.6763 2.80419 21.0594 3.90419 22.1927 5.32641V3.52641C22.1927 3.14863 22.3207 2.83174 22.5767 2.57574C22.8318 2.32063 23.1483 2.19307 23.526 2.19307C23.9038 2.19307 24.2203 2.32063 24.4754 2.57574C24.7314 2.83174 24.8594 3.14863 24.8594 3.52641V8.85974C24.8594 9.23752 24.7314 9.55396 24.4754 9.80907C24.2203 10.0651 23.9038 10.1931 23.526 10.1931H18.1927C17.8149 10.1931 17.4985 10.0651 17.2434 9.80907C16.9874 9.55396 16.8594 9.23752 16.8594 8.85974C16.8594 8.48196 16.9874 8.16507 17.2434 7.90907C17.4985 7.65396 17.8149 7.52641 18.1927 7.52641H20.526C19.6149 6.28196 18.4927 5.30419 17.1594 4.59307C15.826 3.88196 14.3927 3.52641 12.8594 3.52641C10.2594 3.52641 8.05404 4.43174 6.24338 6.24241C4.43182 8.05396 3.52604 10.2597 3.52604 12.8597C3.52604 15.4597 4.43182 17.6651 6.24338 19.4757C8.05404 21.2873 10.2594 22.1931 12.8594 22.1931C14.9038 22.1931 16.754 21.5931 18.41 20.3931C20.0652 19.1931 21.1816 17.6153 21.7594 15.6597C21.8705 15.282 22.0763 14.9651 22.3767 14.7091C22.6763 14.454 23.0149 14.3709 23.3927 14.4597C23.7927 14.5486 24.0869 14.7709 24.2754 15.1264C24.4647 15.482 24.5038 15.8597 24.3927 16.2597C23.6594 18.8153 22.226 20.8873 20.0927 22.4757C17.9594 24.0651 15.5483 24.8597 12.8594 24.8597Z" fill="#F27821"/>
</svg>
