<svg width="24" height="24" viewBox="0 0 24 24" fill="none" xmlns="http://www.w3.org/2000/svg">
<path id="Vector" d="M6.68004 1.94462L4.95888 0.184616C2.07021 2.43692 0.168506 5.90769 0 9.84615H2.40722C2.58776 6.58462 4.22467 3.72923 6.68004 1.94462ZM21.5928 9.84615H24C23.8195 5.90769 21.9178 2.43692 19.0411 0.184616L17.332 1.94462C19.7633 3.72923 21.4122 6.58462 21.5928 9.84615ZM19.2217 10.4615C19.2217 6.68308 17.2477 3.52 13.8054 2.68308V1.84615C13.8054 0.824615 12.999 0 12 0C11.001 0 10.1946 0.824615 10.1946 1.84615V2.68308C6.74022 3.52 4.77834 6.67077 4.77834 10.4615V16.6154L2.37111 19.0769V20.3077H21.6289V19.0769L19.2217 16.6154V10.4615ZM12 24C12.1685 24 12.325 23.9877 12.4814 23.9508C13.2638 23.7785 13.9017 23.2369 14.2146 22.4985C14.335 22.2031 14.3952 21.8831 14.3952 21.5385H9.58074C9.59278 22.8923 10.664 24 12 24Z" fill="#F27821"/>
</svg>
