<svg width="24" height="25" viewBox="0 0 24 25" fill="none" xmlns="http://www.w3.org/2000/svg">
<path id="Vector" d="M11.9677 7.41177C8.96486 7.41177 6.52781 9.84435 6.52781 12.8416C6.52781 15.8389 8.96486 18.2715 11.9677 18.2715C14.9704 18.2715 17.4075 15.8389 17.4075 12.8416C17.4075 9.84435 14.9704 7.41177 11.9677 7.41177ZM1.08797 13.9276H3.26391C3.86229 13.9276 4.35187 13.4389 4.35187 12.8416C4.35187 12.2444 3.86229 11.7557 3.26391 11.7557H1.08797C0.489586 11.7557 0 12.2444 0 12.8416C0 13.4389 0.489586 13.9276 1.08797 13.9276ZM20.6714 13.9276H22.8473C23.4457 13.9276 23.9353 13.4389 23.9353 12.8416C23.9353 12.2444 23.4457 11.7557 22.8473 11.7557H20.6714C20.073 11.7557 19.5834 12.2444 19.5834 12.8416C19.5834 13.4389 20.073 13.9276 20.6714 13.9276ZM10.8797 1.98191V4.15385C10.8797 4.75114 11.3693 5.23983 11.9677 5.23983C12.566 5.23983 13.0556 4.75114 13.0556 4.15385V1.98191C13.0556 1.38462 12.566 0.895935 11.9677 0.895935C11.3693 0.895935 10.8797 1.38462 10.8797 1.98191ZM10.8797 21.5294V23.7014C10.8797 24.2987 11.3693 24.7873 11.9677 24.7873C12.566 24.7873 13.0556 24.2987 13.0556 23.7014V21.5294C13.0556 20.9321 12.566 20.4434 11.9677 20.4434C11.3693 20.4434 10.8797 20.9321 10.8797 21.5294ZM5.42896 4.78372C5.00466 4.36019 4.30836 4.36019 3.89493 4.78372C3.47062 5.20725 3.47062 5.90227 3.89493 6.31494L5.04817 7.46607C5.47248 7.8896 6.16878 7.8896 6.58221 7.46607C6.99564 7.04254 7.00652 6.34752 6.58221 5.93485L5.42896 4.78372ZM18.8871 18.2172C18.4628 17.7937 17.7665 17.7937 17.3531 18.2172C16.9288 18.6407 16.9288 19.3358 17.3531 19.7484L18.5063 20.8996C18.9307 21.3231 19.627 21.3231 20.0404 20.8996C20.4647 20.476 20.4647 19.781 20.0404 19.3683L18.8871 18.2172ZM20.0404 6.31494C20.4647 5.89141 20.4647 5.19639 20.0404 4.78372C19.6161 4.36019 18.9198 4.36019 18.5063 4.78372L17.3531 5.93485C16.9288 6.35838 16.9288 7.0534 17.3531 7.46607C17.7774 7.87874 18.4737 7.8896 18.8871 7.46607L20.0404 6.31494ZM6.58221 19.7484C7.00652 19.3249 7.00652 18.6299 6.58221 18.2172C6.1579 17.7937 5.4616 17.7937 5.04817 18.2172L3.89493 19.3683C3.47062 19.7919 3.47062 20.4869 3.89493 20.8996C4.31924 21.3122 5.01554 21.3231 5.42896 20.8996L6.58221 19.7484Z" fill="#F27821"/>
</svg>
